<svg width="16" height="16" viewBox="0 0 16 16" fill="none" xmlns="http://www.w3.org/2000/svg">
    <rect width="16" height="16" fill="url(#paint0_linear)"/>
    <path d="M11.7224 2.5865C14.6632 4.57713 14.6034 4.57244 14.5435 4.57106C14.5319 4.57084 14.5202 4.57042 14.5086 4.57042C14.146 4.57053 12.2044 4.57063 11.7634 4.57053C11.7489 4.57053 11.7344 4.57084 11.7199 4.57127C11.6559 4.57329 11.5921 4.58 11.5294 4.59299C9.99686 4.90785 9.255 7.6017 8.56149 10.0001C8.02147 11.8692 7.50179 13.6127 6.73959 14.6003C5.78715 13.5487 5.32616 11.6911 5.2957 10.0001C5.32616 8.30904 5.78715 6.45139 6.73959 5.39979C7.30613 6.13397 7.73868 7.28577 8.14524 8.59633C8.15994 8.64382 8.22736 8.64371 8.24174 8.59601C8.50291 7.72841 8.78591 6.87848 9.13038 6.14409C9.26053 5.8666 9.39357 5.6184 9.53118 5.39628C9.55419 5.35912 9.55046 5.3112 9.52202 5.27798C9.21665 4.91935 8.87059 4.6752 8.47074 4.59299C8.40769 4.58 8.34346 4.57329 8.27902 4.57116C8.26496 4.57074 8.25079 4.57042 8.23663 4.57042C7.79556 4.57053 5.85404 4.57042 5.49136 4.57031C5.47975 4.57031 5.46814 4.57063 5.45653 4.57095C5.39667 4.57234 5.33681 4.57702 5.27759 4.58639C3.45984 4.8741 2.4681 7.43708 2.42188 10.0001C2.4681 12.563 3.45984 15.126 5.2777 15.4136C5.33692 15.423 5.39667 15.4277 5.45664 15.429C5.46825 15.4293 5.47986 15.4297 5.49147 15.4297C5.85415 15.4296 7.79566 15.4295 8.23673 15.4296C8.25122 15.4296 8.2657 15.4293 8.28019 15.4288C8.3442 15.4268 8.40801 15.4201 8.47074 15.4071C10.0032 15.0921 10.7451 12.3983 11.4386 9.99995C11.9786 8.1308 12.4983 6.38729 13.2605 5.39969C14.213 6.45128 14.6739 8.30894 14.7044 9.99995C14.6739 11.691 14.213 13.5486 13.2605 14.6002C13.2606 14.6003 13.2606 14.6003 13.2605 14.6002C12.694 13.866 12.2614 12.7142 11.8549 11.4037C11.8402 11.3562 11.7727 11.3563 11.7584 11.404C11.4972 12.2716 11.2142 13.1216 10.8697 13.8559C10.7396 14.1334 10.6065 14.3816 10.4689 14.6037C10.4458 14.641 10.4498 14.6888 10.4781 14.7221C10.7835 15.0806 11.1295 15.3248 11.5293 15.407C11.5921 15.4199 11.6558 15.4266 11.7198 15.4287C11.7886 15.422 11.7886 15.422 11.7198 15.4287C11.7343 15.4292 11.7488 15.4295 11.7633 15.4295C12.2043 15.4294 14.1459 15.4295 14.5085 15.4296C14.5201 15.4296 14.5318 15.4293 14.5434 15.4289C14.6032 15.4276 14.6631 15.4229 14.7223 15.4135C16.5401 15.1258 17.5319 12.5629 17.5781 9.99995C17.532 7.43708 16.5403 4.8741 14.7224 4.5865Z" fill="black"/>
    <defs>
        <linearGradient id="paint0_linear" x1="-7.29784e-07" y1="-4.46875" x2="12.2656" y2="11.875" gradientUnits="userSpaceOnUse">
            <stop offset="0.00" stop-color="#000000"/>
            <stop offset="0.2" stop-color="#000000"/>
            <stop offset="0.2" stop-color="#000000"/>
            <stop offset="1.6799" stop-color="#000000"/>
            <stop offset="0.7718" stop-color="#000000"/>
            <stop offset="0.8639" stop-color="#000000"/>
            <stop offset="0.9554" stop-color="#000000"/>
            <stop offset="0" stop-color="#000000"/>
        </linearGradient>
    </defs>
</svg>